#!OML:ASF E:\emotionWalksFemale\Project 1\Capture day 1\Session 1\Female1.ASF
:FULLY-SPECIFIED
:DEGREES
1994
root 9.22092 15.4205 -0.244999 -3.61446 -1.02245 -2.78117
lowerback 8.5638 0.434837 4.70217
upperback -2.84284 1.38877 3.47408
thorax -7.80919 0.543474 0.818295
lowerneck -8.94151 4.38024 0.0412267
upperneck 13.8994 5.52974 2.82638
head 5.58282 2.907 1.28483
rclavicle -1.0138e-014 2.14687e-014
rhumerus -61.259 49.7361 -119.103
rradius 109.37
rwrist -37.0572
rhand 19.4539 -65.4199
rfingers 7.12502
rthumb -135.974 -1349.29
lclavicle -1.0138e-014 2.14687e-014
lhumerus -75.0779 -34.9802 119.841
lradius 116.88
lwrist 28.3982
lhand 10.7538 -36.8998
lfingers 7.12502
lthumb 35.8409 -10.5444
rfemur 4.33712 8.51761 35.0284
rtibia 20.2987
rfoot -18.7647 -22.6055
rtoes -15.7462
lfemur -28.2857 0.838751 -19.1281
ltibia 58.137
lfoot -13.968 3.92017
ltoes -24.0398
1995
root 9.22165 15.4275 -0.154612 -3.5425 -1.32674 -2.73158
lowerback 8.61594 0.579939 4.75721
upperback -2.91884 1.59127 3.3901
thorax -7.91357 0.634649 0.668214
lowerneck -8.50935 4.31575 0.551158
upperneck 13.6252 5.4199 2.5184
head 5.44962 2.85523 1.08293
rclavicle 6.95746e-015 5.56597e-015
rhumerus -61.0456 49.6467 -119.08
rradius 109.307
rwrist -37.0307
rhand 19.8889 -66.0325
rfingers 7.12502
rthumb -135.568 -1349.75
lclavicle 6.95746e-015 5.56597e-015
lhumerus -75.2406 -35.0732 119.879
lradius 116.915
lwrist 28.3587
lhand 10.3632 -36.9928
lfingers 7.12502
lthumb 35.4707 -10.548
rfemur 4.8673 8.6458 35.017
rtibia 19.8575
rfoot -18.5934 -22.558
rtoes -16.0757
lfemur -28.5305 0.520443 -19.2363
ltibia 56.6115
lfoot -14.1968 3.85841
ltoes -24.0141
1996
root 9.22357 15.4296 -0.0637068 -3.43235 -1.52976 -2.69449
lowerback 8.60248 0.731169 4.8977
upperback -3.04819 1.80699 3.26252
thorax -8.03252 0.725653 0.422772
lowerneck -8.18799 4.19641 1.07234
upperneck 13.6047 5.23143 2.23034
head 5.41394 2.7685 0.888385
rclavicle -6.06293e-015 -1.03368e-014
rhumerus -60.8992 49.4231 -119.129
rradius 109.25
rwrist -37.1436
rhand 20.358 -66.3768
rfingers 7.12502
rthumb -135.132 -1349.93
lclavicle -6.06293e-015 -1.03368e-014
lhumerus -75.6675 -35.2751 120.075
lradius 117.011
lwrist 28.2979
lhand 10.3372 -37.3418
lfingers 7.12502
lthumb 35.4461 -10.8911
rfemur 5.36781 8.65782 34.9912
rtibia 19.3808
rfoot -18.5469 -22.3621
rtoes -15.8523
lfemur -28.7551 0.150735 -19.37
ltibia 55.0223
lfoot -14.8837 3.6487
ltoes -26.6242
1997
root 9.22552 15.4328 0.0413282 -3.42978 -1.85281 -2.81689
lowerback 8.342 0.811247 5.15315
upperback -2.96405 1.92029 3.29688
thorax -7.7818 0.774679 0.302869
lowerneck -8.12593 4.1462 1.1078
upperneck 13.5675 5.17258 2.14069
head 5.39565 2.73493 0.848626
rclavicle -1.49089e-015 1.59028e-015
rhumerus -60.8956 49.5728 -119.3
rradius 109.3
rwrist -37.3332
rhand 19.1556 -65.9922
rfingers 7.12502
rthumb -136.252 -1349.97
lclavicle -1.49089e-015 1.59028e-015
lhumerus -75.5298 -35.3434 119.975
lradius 117.012
lwrist 28.2128
lhand 10.0069 -37.6149
lfingers 7.12502
lthumb 35.1329 -11.09
rfemur 6.07821 8.53419 35.1197
rtibia 18.8838
rfoot -18.6173 -21.9856
rtoes -15.266
lfemur -28.7583 -0.12461 -19.3048
ltibia 53.3931
lfoot -15.3173 3.7124
ltoes -27.1583
1998
root 9.22969 15.4468 0.131671 -3.26706 -2.19226 -2.75745
lowerback 8.2905 0.816109 5.20913
upperback -2.98831 1.93056 3.30102
thorax -7.77645 0.776798 0.275415
lowerneck -8.12556 4.21215 1.10398
upperneck 13.5389 5.26156 2.1469
head 5.38585 2.77835 0.856814
rclavicle -1.14301e-014 -2.38542e-015
rhumerus -60.9279 49.8499 -119.591
rradius 109.291
rwrist -37.0595
rhand 18.7691 -65.9298
rfingers 7.12502
rthumb -136.613 -1529.96
lclavicle -1.14301e-014 -2.38542e-015
lhumerus -75.2959 -35.2157 119.773
lradius 117.004
lwrist 28.0723
lhand 9.47445 -37.7873
lfingers 7.12502
lthumb 34.6277 -11.1451
rfemur 6.48805 8.4749 35.022
rtibia 18.4591
rfoot -18.3545 -21.8098
rtoes -15.61
lfemur -29.0088 -0.500963 -19.379
ltibia 51.7262
lfoot -15.1919 3.92006
ltoes -25.0363
